# xmcd
#
# Track frame offsets: 
#        150
#        18005
#        31865
#        47670
#        59733
#        75190
#        89140
#        103632
#        119245
#        131298
#
# Disc length: 1873 seconds
#
# Revision: 0
# Processed by: cddbd v1.5.2PL0 Copyright (c) Steve Scherf et al.
# Submitted via: ExactAudioCopy v1.0b1
#
DISCID=7c074f0a
DTITLE=With Frank Sinatra and Bing Crosby - 10 Christmas Carols
DYEAR=1900
DGENRE=Oldies
TTITLE0=Frank Sinatra - Have Yourself A Merry Little Christmas
TTITLE1=Ella Fitzgerald and Bing Crosby - Silver Bells
TTITLE2=Frank Sinatra - It Came Upon A Midnight Clear
TTITLE3=Bing Crosby - Silent Night
TTITLE4=Frank Sinatra - White Christmas
TTITLE5=Frankk Sinatra - Christmas Dreaming
TTITLE6=Frank Sinatra - I'll Be Home For Christmas
TTITLE7=Frank Sinatra - The Christmas Song
TTITLE8=Frank Sinatra - Oh Come All Ye Faithfull
TTITLE9=Bing Crosby - Let It Snow, Let it Snow, Let It Snow
EXTD=
EXTT0=
EXTT1=
EXTT2=
EXTT3=
EXTT4=
EXTT5=
EXTT6=
EXTT7=
EXTT8=
EXTT9=
PLAYORDER=
